<svg xmlns="http://www.w3.org/2000/svg" version="1.0" width="2735.0mm" height="1974.0mm" viewBox="0 0 2735.0 1974.0">
<rect width="2735.0" height="1974.0" fill="white" />
<path fill="none" stroke="black" stroke-width="0.2" d="M 0.0,394.8 C 109.4 387.74 312.28 448.6 236.17 369.64 C 160.05 290.68 378.85 290.68 345.57 369.64 C 312.28 448.6 437.6 381.0 547.0 394.8 C 656.4 408.6 831.69 428.95 769.11 349.99 C 706.52 271.03 925.32 271.03 878.51 349.99 C 831.69 428.95 984.6 389.1 1094.0 394.8 C 1203.4 400.5 1356.76 368.79 1299.53 447.75 C 1242.29 526.71 1461.09 526.71 1408.93 447.75 C 1356.76 368.79 1531.6 390.09 1641.0 394.8 C 1750.4 399.51 1932.12 429.79 1879.99 350.83 C 1827.87 271.87 2046.67 271.87 1989.39 350.83 C 1932.12 429.79 2078.6 409.68 2188.0 394.8 C 2297.4 379.92 2478.73 442.84 2412.99 363.88 C 2347.24 284.92 2566.04 284.92 2522.39 363.88 C 2478.73 442.84 2625.6 403.66 2735.0 394.8 M 0.0,789.6 C 109.4 790.62 271.89 837.68 209.22 758.72 C 146.56 679.76 365.36 679.76 318.62 758.72 C 271.89 837.68 437.6 786.21 547.0 789.6 C 656.4 792.99 803.38 753.39 752.64 832.35 C 701.9 911.31 920.7 911.31 862.04 832.35 C 803.38 753.39 984.6 793.21 1094.0 789.6 C 1203.4 785.99 1353.75 765.11 1313.8 844.07 C 1273.85 923.03 1492.65 923.03 1423.2 844.07 C 1353.75 765.11 1531.6 785.33 1641.0 789.6 C 1750.4 793.87 1927.19 751.62 1868.4 830.58 C 1809.61 909.54 2028.41 909.54 1977.8 830.58 C 1927.19 751.62 2078.6 777.35 2188.0 789.6 C 2297.4 801.85 2491.14 745.96 2426.02 824.92 C 2360.89 903.88 2579.69 903.88 2535.42 824.92 C 2491.14 745.96 2625.6 793.28 2735.0 789.6 M 0.0,1184.4 C 109.4 1192.55 303.84 1214.75 232.95 1135.79 C 162.06 1056.83 380.86 1056.83 342.35 1135.79 C 303.84 1214.75 437.6 1195.12 547.0 1184.4 C 656.4 1173.68 792.5 1232.9 748.57 1153.94 C 704.64 1074.98 923.44 1074.98 857.97 1153.94 C 792.5 1232.9 984.6 1170.4 1094.0 1184.4 C 1203.4 1198.4 1355.6 1157.82 1313.05 1236.78 C 1270.51 1315.74 1489.31 1315.74 1422.45 1236.78 C 1355.6 1157.82 1531.6 1196.35 1641.0 1184.4 C 1750.4 1172.45 1889.55 1137.11 1854.01 1216.07 C 1818.46 1295.03 2037.26 1295.03 1963.41 1216.07 C 1889.55 1137.11 2078.6 1171.21 2188.0 1184.4 C 2297.4 1197.59 2485.6 1154.95 2422.32 1233.91 C 2359.04 1312.87 2577.84 1312.87 2531.72 1233.91 C 2485.6 1154.95 2625.6 1172.28 2735.0 1184.4 M 0.0,1579.2 C 109.4 1569.85 310.57 1618.9 237.44 1539.94 C 164.31 1460.98 383.11 1460.98 346.84 1539.94 C 310.57 1618.9 437.6 1587.98 547.0 1579.2 C 656.4 1570.42 794.18 1616.49 749.25 1537.53 C 704.31 1458.57 923.11 1458.57 858.65 1537.53 C 794.18 1616.49 984.6 1574.26 1094.0 1579.2 C 1203.4 1584.14 1361.49 1610.68 1326.65 1531.72 C 1291.8 1452.76 1510.6 1452.76 1436.05 1531.72 C 1361.49 1610.68 1531.6 1589.27 1641.0 1579.2 C 1750.4 1569.13 1940.2 1605.17 1878.08 1526.21 C 1815.95 1447.25 2034.75 1447.25 1987.48 1526.21 C 1940.2 1605.17 2078.6 1568.72 2188.0 1579.2 C 2297.4 1589.68 2423.29 1607.41 2388.46 1528.45 C 2353.63 1449.49 2572.43 1449.49 2497.86 1528.45 C 2423.29 1607.41 2625.6 1569.49 2735.0 1579.2 "></path>
<path fill="none" stroke="black" stroke-width="0.2" d="M 547.0,0.0 C 552.21 78.96 593.38 209.25 483.98 172.38 C 374.58 135.51 374.58 293.43 483.98 251.34 C 593.38 209.25 549.73 315.84 547.0 394.8 C 544.27 473.76 584.61 599.14 475.21 555.19 C 365.81 511.25 365.81 669.17 475.21 634.15 C 584.61 599.14 545.79 710.64 547.0 789.6 C 548.21 868.56 584.68 1008.69 475.28 960.53 C 365.88 912.38 365.88 1070.3 475.28 1039.49 C 584.68 1008.69 565.72 1105.44 547.0 1184.4 C 528.28 1263.36 615.43 1382.27 506.03 1345.42 C 396.63 1308.57 396.63 1466.49 506.03 1424.38 C 615.43 1382.27 536.8 1500.24 547.0 1579.2 C 557.2 1658.16 486.51 1761.76 595.91 1723.36 C 705.31 1684.96 705.31 1842.88 595.91 1802.32 C 486.51 1761.76 538.43 1895.04 547.0 1974.0 M 1094.0,0.0 C 1093.1 78.96 1136.38 207.68 1026.98 155.92 C 917.58 104.17 917.58 262.09 1026.98 234.88 C 1136.38 207.68 1107.32 315.84 1094.0 394.8 C 1080.68 473.76 1146.01 579.64 1036.61 546.25 C 927.21 512.85 927.21 670.77 1036.61 625.21 C 1146.01 579.64 1081.61 710.64 1094.0 789.6 C 1106.39 868.56 1046.68 988.99 1156.08 945.0 C 1265.48 901.0 1265.48 1058.92 1156.08 1023.96 C 1046.68 988.99 1110.56 1105.44 1094.0 1184.4 C 1077.44 1263.36 1035.97 1376.68 1145.37 1329.41 C 1254.77 1282.14 1254.77 1440.06 1145.37 1408.37 C 1035.97 1376.68 1111.82 1500.24 1094.0 1579.2 C 1076.18 1658.16 1028.02 1769.01 1137.42 1743.96 C 1246.82 1718.91 1246.82 1876.83 1137.42 1822.92 C 1028.02 1769.01 1085.8 1895.04 1094.0 1974.0 M 1641.0,0.0 C 1628.12 78.96 1564.7 186.64 1674.1 157.05 C 1783.5 127.46 1783.5 285.38 1674.1 236.01 C 1564.7 186.64 1623.47 315.84 1641.0 394.8 C 1658.53 473.76 1582.23 587.82 1691.63 561.4 C 1801.03 534.99 1801.03 692.91 1691.63 640.36 C 1582.23 587.82 1653.13 710.64 1641.0 789.6 C 1628.87 868.56 1597.88 972.05 1707.28 940.84 C 1816.68 909.62 1816.68 1067.54 1707.28 1019.8 C 1597.88 972.05 1661.23 1105.44 1641.0 1184.4 C 1620.77 1263.36 1677.16 1402.57 1567.76 1348.43 C 1458.36 1294.28 1458.36 1452.2 1567.76 1427.39 C 1677.16 1402.57 1621.55 1500.24 1641.0 1579.2 C 1660.45 1658.16 1710.86 1776.89 1601.46 1730.21 C 1492.06 1683.53 1492.06 1841.45 1601.46 1809.17 C 1710.86 1776.89 1633.22 1895.04 1641.0 1974.0 M 2188.0,0.0 C 2178.09 78.96 2146.59 171.7 2255.99 145.37 C 2365.39 119.03 2365.39 276.95 2255.99 224.33 C 2146.59 171.7 2168.62 315.84 2188.0 394.8 C 2207.38 473.76 2252.53 597.4 2143.13 563.38 C 2033.73 529.35 2033.73 687.27 2143.13 642.34 C 2252.53 597.4 2184.38 710.64 2188.0 789.6 C 2191.62 868.56 2121.26 1005.65 2230.66 960.85 C 2340.06 916.04 2340.06 1073.96 2230.66 1039.81 C 2121.26 1005.65 2181.97 1105.44 2188.0 1184.4 C 2194.03 1263.36 2228.0 1384.85 2118.6 1348.05 C 2009.2 1311.26 2009.2 1469.18 2118.6 1427.01 C 2228.0 1384.85 2201.72 1500.24 2188.0 1579.2 C 2174.28 1658.16 2116.22 1764.57 2225.62 1725.88 C 2335.02 1687.19 2335.02 1845.11 2225.62 1804.84 C 2116.22 1764.57 2188.82 1895.04 2188.0 1974.0 "></path>
<path fill="none" stroke="black" stroke-width="0.2" d="M 2.0 0.0 L 2733.0 0.0 A 2.0 2.0 0 0 1 2735.0 2.0 L 2735.0 1972.0 A 2.0 2.0 0 0 1 2733.0 1974.0 L 2.0 1974.0 A 2.0 2.0 0 0 1 0.0 1972.0 L 0.0 2.0 A 2.0 2.0 0 0 1 2.0 0.0 "></path>
</svg>