<svg xmlns="http://www.w3.org/2000/svg" version="1.0" width="4032.0mm" height="3024.0mm" viewBox="0 0 4032.0 3024.0">
<rect width="4032.0" height="3024.0" fill="white" />
<path fill="none" stroke="black" stroke-width="0.2" d="M 0.0,604.8 C 161.28 593.99 460.37 687.21 348.16 566.25 C 235.95 445.29 558.51 445.29 509.44 566.25 C 460.37 687.21 645.12 583.66 806.4 604.8 C 967.68 625.94 1226.1 657.12 1133.84 536.16 C 1041.57 415.2 1364.13 415.2 1295.12 536.16 C 1226.1 657.12 1451.52 596.07 1612.8 604.8 C 1774.08 613.53 2000.17 564.96 1915.8 685.92 C 1831.42 806.88 2153.98 806.88 2077.08 685.92 C 2000.17 564.96 2257.92 597.58 2419.2 604.8 C 2580.48 612.02 2848.37 658.4 2771.53 537.44 C 2694.69 416.48 3017.25 416.48 2932.81 537.44 C 2848.37 658.4 3064.32 627.6 3225.6 604.8 C 3386.88 582.0 3654.21 678.39 3557.28 557.43 C 3460.36 436.47 3782.92 436.47 3718.56 557.43 C 3654.21 678.39 3870.72 618.37 4032.0 604.8 M 0.0,1209.6 C 161.28 1211.17 400.83 1283.25 308.44 1162.29 C 216.06 1041.33 538.62 1041.33 469.72 1162.29 C 400.83 1283.25 645.12 1204.4 806.4 1209.6 C 967.68 1214.8 1184.36 1154.13 1109.56 1275.09 C 1034.75 1396.05 1357.31 1396.05 1270.84 1275.09 C 1184.36 1154.13 1451.52 1215.12 1612.8 1209.6 C 1774.08 1204.08 1995.73 1172.08 1936.84 1293.04 C 1877.94 1414.0 2200.5 1414.0 2098.12 1293.04 C 1995.73 1172.08 2257.92 1203.07 2419.2 1209.6 C 2580.48 1216.13 2841.11 1151.41 2754.44 1272.37 C 2667.78 1393.33 2990.34 1393.33 2915.72 1272.37 C 2841.11 1151.41 3064.32 1190.83 3225.6 1209.6 C 3386.88 1228.37 3672.5 1142.74 3576.49 1263.7 C 3480.48 1384.66 3803.04 1384.66 3737.77 1263.7 C 3672.5 1142.74 3870.72 1215.24 4032.0 1209.6 M 0.0,1814.4 C 161.28 1826.88 447.93 1860.89 343.42 1739.93 C 238.92 1618.97 561.48 1618.97 504.7 1739.93 C 447.93 1860.89 645.12 1830.83 806.4 1814.4 C 967.68 1797.97 1168.32 1888.69 1103.56 1767.73 C 1038.8 1646.77 1361.36 1646.77 1264.84 1767.73 C 1168.32 1888.69 1451.52 1792.96 1612.8 1814.4 C 1774.08 1835.84 1998.45 1773.68 1935.73 1894.64 C 1873.01 2015.6 2195.57 2015.6 2097.01 1894.64 C 1998.45 1773.68 2257.92 1832.7 2419.2 1814.4 C 2580.48 1796.1 2785.62 1741.95 2733.22 1862.91 C 2680.82 1983.87 3003.38 1983.87 2894.5 1862.91 C 2785.62 1741.95 3064.32 1794.19 3225.6 1814.4 C 3386.88 1834.61 3664.33 1769.29 3571.04 1890.25 C 3477.75 2011.21 3800.31 2011.21 3732.32 1890.25 C 3664.33 1769.29 3870.72 1795.83 4032.0 1814.4 M 0.0,2419.2 C 161.28 2404.88 457.85 2480.01 350.04 2359.05 C 242.23 2238.09 564.79 2238.09 511.32 2359.05 C 457.85 2480.01 645.12 2432.65 806.4 2419.2 C 967.68 2405.75 1170.81 2476.33 1104.56 2355.37 C 1038.31 2234.41 1360.87 2234.41 1265.84 2355.37 C 1170.81 2476.33 1451.52 2411.64 1612.8 2419.2 C 1774.08 2426.76 2007.14 2467.42 1955.77 2346.46 C 1904.4 2225.5 2226.96 2225.5 2117.05 2346.46 C 2007.14 2467.42 2257.92 2434.63 2419.2 2419.2 C 2580.48 2403.77 2860.28 2458.98 2768.7 2338.02 C 2677.12 2217.06 2999.68 2217.06 2929.98 2338.02 C 2860.28 2458.98 3064.32 2403.14 3225.6 2419.2 C 3386.88 2435.26 3572.47 2462.41 3521.12 2341.45 C 3469.78 2220.49 3792.34 2220.49 3682.4 2341.45 C 3572.47 2462.41 3870.72 2404.32 4032.0 2419.2 "></path>
<path fill="none" stroke="black" stroke-width="0.2" d="M 806.4,0.0 C 814.08 120.96 874.77 320.55 713.49 264.07 C 552.21 207.59 552.21 449.51 713.49 385.03 C 874.77 320.55 810.43 483.84 806.4 604.8 C 802.37 725.76 861.85 917.83 700.57 850.51 C 539.29 783.19 539.29 1025.11 700.57 971.47 C 861.85 917.83 804.62 1088.64 806.4 1209.6 C 808.18 1330.56 861.95 1545.23 700.67 1471.46 C 539.39 1397.69 539.39 1639.61 700.67 1592.42 C 861.95 1545.23 834.0 1693.44 806.4 1814.4 C 778.8 1935.36 907.28 2117.52 746.0 2061.07 C 584.72 2004.62 584.72 2246.54 746.0 2182.03 C 907.28 2117.52 791.36 2298.24 806.4 2419.2 C 821.44 2540.16 717.23 2698.86 878.51 2640.04 C 1039.79 2581.21 1039.79 2823.13 878.51 2761.0 C 717.23 2698.86 793.77 2903.04 806.4 3024.0 M 1612.8,0.0 C 1611.47 120.96 1675.28 318.14 1514.0 238.86 C 1352.72 159.58 1352.72 401.5 1514.0 359.82 C 1675.28 318.14 1632.44 483.84 1612.8 604.8 C 1593.16 725.76 1689.47 887.96 1528.19 836.8 C 1366.91 785.64 1366.91 1027.56 1528.19 957.76 C 1689.47 887.96 1594.53 1088.64 1612.8 1209.6 C 1631.07 1330.56 1543.04 1515.05 1704.32 1447.65 C 1865.6 1380.25 1865.6 1622.17 1704.32 1568.61 C 1543.04 1515.05 1637.21 1693.44 1612.8 1814.4 C 1588.39 1935.36 1527.25 2108.96 1688.53 2036.55 C 1849.81 1964.14 1849.81 2206.06 1688.53 2157.51 C 1527.25 2108.96 1639.08 2298.24 1612.8 2419.2 C 1586.52 2540.16 1515.53 2709.97 1676.81 2671.6 C 1838.09 2633.22 1838.09 2875.14 1676.81 2792.56 C 1515.53 2709.97 1600.72 2903.04 1612.8 3024.0 M 2419.2,0.0 C 2400.22 120.96 2306.71 285.92 2467.99 240.59 C 2629.27 195.25 2629.27 437.17 2467.99 361.55 C 2306.71 285.92 2393.35 483.84 2419.2 604.8 C 2445.05 725.76 2332.56 900.48 2493.84 860.02 C 2655.12 819.57 2655.12 1061.49 2493.84 980.98 C 2332.56 900.48 2437.08 1088.64 2419.2 1209.6 C 2401.32 1330.56 2355.62 1489.1 2516.9 1441.28 C 2678.18 1393.46 2678.18 1635.38 2516.9 1562.24 C 2355.62 1489.1 2449.03 1693.44 2419.2 1814.4 C 2389.37 1935.36 2472.5 2148.62 2311.22 2065.68 C 2149.94 1982.73 2149.94 2224.65 2311.22 2186.64 C 2472.5 2148.62 2390.52 2298.24 2419.2 2419.2 C 2447.88 2540.16 2522.19 2722.04 2360.91 2650.53 C 2199.63 2579.03 2199.63 2820.95 2360.91 2771.49 C 2522.19 2722.04 2407.74 2903.04 2419.2 3024.0 M 3225.6,0.0 C 3210.98 120.96 3164.55 263.03 3325.83 222.69 C 3487.11 182.35 3487.11 424.27 3325.83 343.65 C 3164.55 263.03 3197.04 483.84 3225.6 604.8 C 3254.16 725.76 3320.74 915.17 3159.46 863.04 C 2998.18 810.92 2998.18 1052.84 3159.46 984.0 C 3320.74 915.17 3220.26 1088.64 3225.6 1209.6 C 3230.94 1330.56 3127.21 1540.57 3288.49 1471.94 C 3449.77 1403.3 3449.77 1645.22 3288.49 1592.9 C 3127.21 1540.57 3216.72 1693.44 3225.6 1814.4 C 3234.48 1935.36 3284.56 2121.47 3123.28 2065.11 C 2962.0 2008.74 2962.0 2250.66 3123.28 2186.07 C 3284.56 2121.47 3245.82 2298.24 3225.6 2419.2 C 3205.38 2540.16 3119.77 2703.18 3281.05 2643.91 C 3442.33 2584.64 3442.33 2826.56 3281.05 2764.87 C 3119.77 2703.18 3226.81 2903.04 3225.6 3024.0 "></path>
<path fill="none" stroke="black" stroke-width="0.2" d="M 2.0 0.0 L 4030.0 0.0 A 2.0 2.0 0 0 1 4032.0 2.0 L 4032.0 3022.0 A 2.0 2.0 0 0 1 4030.0 3024.0 L 2.0 3024.0 A 2.0 2.0 0 0 1 0.0 3022.0 L 0.0 2.0 A 2.0 2.0 0 0 1 2.0 0.0 "></path>
</svg>