<svg xmlns="http://www.w3.org/2000/svg" version="1.0" width="6000.0mm" height="6000.0mm" viewBox="0 0 6000.0 6000.0">
<rect width="6000.0" height="6000.0" fill="white" />
<path fill="none" stroke="black" stroke-width="0.2" d="M 0.0,1200.0 C 240.0 1196.65 568.7 1042.15 483.4 1282.15 C 398.1 1522.15 878.1 1522.15 723.4 1282.15 C 568.7 1042.15 960.0 1152.9 1200.0 1200.0 C 1440.0 1247.1 1796.17 1107.72 1675.33 1347.72 C 1554.5 1587.72 2034.5 1587.72 1915.33 1347.72 C 1796.17 1107.72 2160.0 1171.15 2400.0 1200.0 C 2640.0 1228.85 3056.42 1312.59 2926.9 1072.59 C 2797.38 832.59 3277.38 832.59 3166.9 1072.59 C 3056.42 1312.59 3360.0 1152.57 3600.0 1200.0 C 3840.0 1247.43 4197.09 1059.06 4112.38 1299.06 C 4027.68 1539.06 4507.68 1539.06 4352.38 1299.06 C 4197.09 1059.06 4560.0 1194.23 4800.0 1200.0 C 5040.0 1205.77 5335.29 1115.27 5234.24 1355.27 C 5133.19 1595.27 5613.19 1595.27 5474.24 1355.27 C 5335.29 1115.27 5760.0 1247.9 6000.0 1200.0 M 0.0,2400.0 C 240.0 2409.81 653.92 2298.45 524.19 2538.45 C 394.46 2778.45 874.46 2778.45 764.19 2538.45 C 653.92 2298.45 960.0 2437.96 1200.0 2400.0 C 1440.0 2362.04 1777.72 2294.69 1677.69 2534.69 C 1577.65 2774.69 2057.65 2774.69 1917.69 2534.69 C 1777.72 2294.69 2160.0 2352.96 2400.0 2400.0 C 2640.0 2447.04 3033.09 2472.21 2899.95 2232.21 C 2766.8 1992.21 3246.8 1992.21 3139.95 2232.21 C 3033.09 2472.21 3360.0 2429.91 3600.0 2400.0 C 3840.0 2370.09 4282.3 2275.9 4117.95 2515.9 C 3953.6 2755.9 4433.6 2755.9 4357.95 2515.9 C 4282.3 2275.9 4560.0 2421.16 4800.0 2400.0 C 5040.0 2378.84 5433.95 2269.4 5277.75 2509.4 C 5121.54 2749.4 5601.54 2749.4 5517.75 2509.4 C 5433.95 2269.4 5760.0 2422.82 6000.0 2400.0 M 0.0,3600.0 C 240.0 3554.26 614.15 3469.73 497.39 3709.73 C 380.63 3949.73 860.63 3949.73 737.39 3709.73 C 614.15 3469.73 960.0 3560.03 1200.0 3600.0 C 1440.0 3639.97 1793.1 3681.45 1677.69 3441.45 C 1562.28 3201.45 2042.28 3201.45 1917.69 3441.45 C 1793.1 3681.45 2160.0 3629.88 2400.0 3600.0 C 2640.0 3570.12 2987.71 3684.02 2853.85 3444.02 C 2719.99 3204.02 3199.99 3204.02 3093.85 3444.02 C 2987.71 3684.02 3360.0 3564.12 3600.0 3600.0 C 3840.0 3635.88 4228.03 3680.58 4110.55 3440.58 C 3993.07 3200.58 4473.07 3200.58 4350.55 3440.58 C 4228.03 3680.58 4560.0 3631.38 4800.0 3600.0 C 5040.0 3568.62 5384.43 3718.91 5305.39 3478.91 C 5226.34 3238.91 5706.34 3238.91 5545.39 3478.91 C 5384.43 3718.91 5760.0 3619.77 6000.0 3600.0 M 0.0,4800.0 C 240.0 4773.5 565.02 4892.91 441.02 4652.91 C 317.02 4412.91 797.02 4412.91 681.02 4652.91 C 565.02 4892.91 960.0 4793.61 1200.0 4800.0 C 1440.0 4806.39 1849.74 4953.69 1723.88 4713.69 C 1598.02 4473.69 2078.02 4473.69 1963.88 4713.69 C 1849.74 4953.69 2160.0 4846.25 2400.0 4800.0 C 2640.0 4753.75 2976.2 4934.32 2890.88 4694.32 C 2805.56 4454.32 3285.56 4454.32 3130.88 4694.32 C 2976.2 4934.32 3360.0 4759.74 3600.0 4800.0 C 3840.0 4840.26 4224.59 4651.55 4111.59 4891.55 C 3998.6 5131.55 4478.6 5131.55 4351.59 4891.55 C 4224.59 4651.55 4560.0 4817.4 4800.0 4800.0 C 5040.0 4782.6 5357.88 4922.2 5280.81 4682.2 C 5203.74 4442.2 5683.74 4442.2 5520.81 4682.2 C 5357.88 4922.2 5760.0 4779.91 6000.0 4800.0 "></path>
<path fill="none" stroke="black" stroke-width="0.2" d="M 1200.0,0.0 C 1217.32 240.0 1299.95 615.43 1059.95 483.56 C 819.95 351.69 819.95 831.69 1059.95 723.56 C 1299.95 615.43 1189.94 960.0 1200.0 1200.0 C 1210.06 1440.0 1059.11 1747.51 1299.11 1637.63 C 1539.11 1527.75 1539.11 2007.75 1299.11 1877.63 C 1059.11 1747.51 1182.44 2160.0 1200.0 2400.0 C 1217.56 2640.0 1066.24 2942.97 1306.24 2832.79 C 1546.24 2722.61 1546.24 3202.61 1306.24 3072.79 C 1066.24 2942.97 1207.59 3360.0 1200.0 3600.0 C 1192.41 3840.0 1100.73 4203.97 1340.73 4094.51 C 1580.73 3985.05 1580.73 4465.05 1340.73 4334.51 C 1100.73 4203.97 1219.33 4560.0 1200.0 4800.0 C 1180.67 5040.0 1121.52 5372.69 1361.52 5274.59 C 1601.52 5176.5 1601.52 5656.5 1361.52 5514.59 C 1121.52 5372.69 1177.79 5760.0 1200.0 6000.0 M 2400.0,0.0 C 2425.29 240.0 2479.56 584.26 2239.56 495.46 C 1999.56 406.67 1999.56 886.67 2239.56 735.46 C 2479.56 584.26 2412.17 960.0 2400.0 1200.0 C 2387.83 1440.0 2296.22 1758.38 2536.22 1652.86 C 2776.22 1547.33 2776.22 2027.33 2536.22 1892.86 C 2296.22 1758.38 2416.06 2160.0 2400.0 2400.0 C 2383.94 2640.0 2246.71 3026.11 2486.71 2890.85 C 2726.71 2755.58 2726.71 3235.58 2486.71 3130.85 C 2246.71 3026.11 2409.28 3360.0 2400.0 3600.0 C 2390.72 3840.0 2256.5 4243.7 2496.5 4110.19 C 2736.5 3976.67 2736.5 4456.67 2496.5 4350.19 C 2256.5 4243.7 2357.29 4560.0 2400.0 4800.0 C 2442.71 5040.0 2298.31 5406.82 2538.31 5318.56 C 2778.31 5230.3 2778.31 5710.3 2538.31 5558.56 C 2298.31 5406.82 2387.22 5760.0 2400.0 6000.0 M 3600.0,0.0 C 3631.07 240.0 3743.64 591.43 3503.64 434.41 C 3263.64 277.39 3263.64 757.39 3503.64 674.41 C 3743.64 591.43 3580.06 960.0 3600.0 1200.0 C 3619.94 1440.0 3673.63 1798.24 3433.63 1644.98 C 3193.63 1491.72 3193.63 1971.72 3433.63 1884.98 C 3673.63 1798.24 3617.38 2160.0 3600.0 2400.0 C 3582.62 2640.0 3450.45 2984.95 3690.45 2846.46 C 3930.45 2707.96 3930.45 3187.96 3690.45 3086.46 C 3450.45 2984.95 3596.24 3360.0 3600.0 3600.0 C 3603.76 3840.0 3511.46 4223.99 3751.46 4070.78 C 3991.46 3917.56 3991.46 4397.56 3751.46 4310.78 C 3511.46 4223.99 3628.33 4560.0 3600.0 4800.0 C 3571.67 5040.0 3477.32 5433.2 3717.32 5305.65 C 3957.32 5178.1 3957.32 5658.1 3717.32 5545.65 C 3477.32 5433.2 3566.24 5760.0 3600.0 6000.0 M 4800.0,0.0 C 4806.89 240.0 4955.27 582.51 4715.27 464.38 C 4475.27 346.25 4475.27 826.25 4715.27 704.38 C 4955.27 582.51 4828.61 960.0 4800.0 1200.0 C 4771.39 1440.0 4719.43 1809.39 4959.43 1689.3 C 5199.43 1569.2 5199.43 2049.2 4959.43 1929.3 C 4719.43 1809.39 4839.11 2160.0 4800.0 2400.0 C 4760.89 2640.0 4716.17 3055.97 4956.17 2908.09 C 5196.17 2760.21 5196.17 3240.21 4956.17 3148.09 C 4716.17 3055.97 4846.36 3360.0 4800.0 3600.0 C 4753.64 3840.0 4659.68 4253.13 4899.68 4114.02 C 5139.68 3974.9 5139.68 4454.9 4899.68 4354.02 C 4659.68 4253.13 4774.9 4560.0 4800.0 4800.0 C 4825.1 5040.0 4674.65 5418.94 4914.65 5320.77 C 5154.65 5222.61 5154.65 5702.61 4914.65 5560.77 C 4674.65 5418.94 4754.77 5760.0 4800.0 6000.0 "></path>
<path fill="none" stroke="black" stroke-width="0.2" d="M 2.0 0.0 L 5998.0 0.0 A 2.0 2.0 0 0 1 6000.0 2.0 L 6000.0 5998.0 A 2.0 2.0 0 0 1 5998.0 6000.0 L 2.0 6000.0 A 2.0 2.0 0 0 1 0.0 5998.0 L 0.0 2.0 A 2.0 2.0 0 0 1 2.0 0.0 "></path>
</svg>